Coordinates
version=1
nRows=10
nColumns=63
inDegrees=yes

Units are S.I. units (second, meters, Newtons, ...)
If the header above contains a line with 'inDegrees', this indicates whether rotational values are in degrees (yes) or radians (no).

endheader
time	pelvis_tilt	pelvis_list	pelvis_rotation	pelvis_tx	pelvis_ty	pelvis_tz	hip_flexion_r	hip_adduction_r	hip_rotation_r	knee_angle_r	knee_angle_r_beta	ankle_angle_r	subtalar_angle_r	mtp_angle_r	hip_flexion_l	hip_adduction_l	hip_rotation_l	knee_angle_l	knee_angle_l_beta	ankle_angle_l	subtalar_angle_l	mtp_angle_l	L5_S1_Flex_Ext	L5_S1_Lat_Bending	L5_S1_axial_rotation	L4_L5_Flex_Ext	L4_L5_Lat_Bending	L4_L5_axial_rotation	L3_L4_Flex_Ext	L3_L4_Lat_Bending	L3_L4_axial_rotation	L2_L3_Flex_Ext	L2_L3_Lat_Bending	L2_L3_axial_rotation	L1_L2_Flex_Ext	L1_L2_Lat_Bending	L1_L2_axial_rotation	L1_T12_Flex_Ext	L1_T12_Lat_Bending	L1_T12_axial_rotation	Abs_r3	Abs_r2	Abs_r1	Abs_t1	Abs_t2	neck_flexion	neck_bending	neck_rotation	arm_flex_r	arm_add_r	arm_rot_r	elbow_flex_r	pro_sup_r	wrist_flex_r	wrist_dev_r	arm_flex_l	arm_add_l	arm_rot_l	elbow_flex_l	pro_sup_l	wrist_flex_l	wrist_dev_l
      1.91525424	      0.81082385	     -4.62393921	     82.75533811	      0.23877194	      0.75788403	      0.71915868	      5.45290795	      1.02074646	    -11.57441008	     11.03706587	      0.19263314	     24.40865159	     18.25402672	      0.00000000	      4.37901036	     -3.67703156	      0.05773821	      9.41548835	      0.16433127	     14.25361431	     -7.15718719	      0.00000000	     -0.07481405	      0.15253437	      0.23606318	     -0.13893718	      0.20287072	      0.25081713	     -0.12291201	      0.37087207	      0.25081713	     -0.08550498	      0.37087207	      0.20655528	     -0.06947233	      0.31104809	      0.19180134	     -0.04274875	      0.23627574	      0.17704739	     -0.53438930	      1.72549933	      1.31291260	      0.00000000	      0.00000000	      7.38540693	     -3.14839350	      4.24631170	     -7.44228626	    -16.07738190	     19.81949392	     58.75904426	     83.17946204	     -1.08368322	      5.75091109	      0.52611298	    -20.04949610	     42.45669039	     36.00651211	     84.19074978	     -8.93532874	    -10.37332516
      1.93220339	      0.82418919	     -4.52444973	     82.38716342	      0.23900945	      0.75777636	      0.71982268	      5.53192308	      1.01341908	    -11.27354963	     11.30069954	      0.19723441	     24.47679296	     18.24057525	      0.00000000	      4.07274908	     -3.54658545	      1.69167948	      9.16849959	      0.16002051	     13.31682387	     -9.92634515	      0.00000000	     -0.07979342	      0.15138630	      0.32536802	     -0.14818435	      0.20134378	      0.34570352	     -0.13109260	      0.36808065	      0.34570352	     -0.09119589	      0.36808065	      0.28469702	     -0.07409617	      0.30870694	      0.26436152	     -0.04559396	      0.23449738	      0.24402602	     -0.56995638	      1.71251210	      1.80959932	      0.00000000	      0.00000000	      7.85068555	     -3.07359517	      3.97342361	     -7.28098341	    -16.61209810	     20.80203710	     59.17249754	     81.77657011	     -2.07561365	      6.33308907	      1.78504222	    -20.37506910	     48.96386159	     33.79660697	     75.11650325	    -10.38451290	    -13.69388689
      1.94915254	      0.82380648	     -4.54056772	     82.29289868	      0.23915876	      0.75746971	      0.72032153	      5.61398482	      1.01923810	    -11.21778973	     11.37214349	      0.19848135	     24.53654925	     18.24148993	      0.00000000	      3.96100443	     -3.56241354	      1.91626709	      8.99260673	      0.15695060	     13.22953825	     -9.90130881	      0.00000000	     -0.07627746	      0.14432785	      0.32427925	     -0.14165488	      0.19195605	      0.34454671	     -0.12531624	      0.35091875	      0.34454671	     -0.08717751	      0.35091875	      0.28374435	     -0.07083125	      0.29431336	      0.26347689	     -0.04358494	      0.22356385	      0.24320944	     -0.54484229	      1.63266556	      1.80354393	      0.00000000	      0.00000000	      8.36465717	     -2.90781131	      3.79165333	     -7.17473111	    -16.77868650	     21.09659203	     59.38722962	     81.41075885	     -1.97002919	      6.89940154	      1.42623935	    -20.23276567	     48.62388639	     32.83344664	     72.66372579	     -9.23929199	    -13.18234744
      1.96610169	      0.80231414	     -4.57445410	     82.32744107	      0.23909773	      0.75717391	      0.72062913	      5.64454625	      0.99933192	    -11.31515494	     11.32978519	      0.19774206	     24.55704908	     18.25258875	      0.00000000	      3.88314148	     -3.53109099	      2.40582782	      8.82776522	      0.15407357	     13.02846984	    -10.16547013	      0.00000000	     -0.07389598	      0.13850292	      0.28958941	     -0.13723222	      0.18420888	      0.30768874	     -0.12140370	      0.33675599	      0.30768874	     -0.08445571	      0.33675599	      0.25339073	     -0.06861981	      0.28243514	      0.23529139	     -0.04222416	      0.21454102	      0.21719205	     -0.52783159	      1.56677268	      1.61060940	      0.00000000	      0.00000000	      8.75067686	     -2.74525289	      3.84757936	     -7.12003786	    -16.92507770	     21.37080775	     59.52198571	     80.82417809	     -1.85025172	      7.17853793	      1.29266449	    -20.14671197	     49.06552293	     31.79000255	     69.44021850	     -7.80593020	    -12.61277833
      1.98305085	      0.71862864	     -4.67136225	     82.32827133	      0.23910566	      0.75678030	      0.72096937	      5.75201145	      0.93409053	    -11.23846699	     11.25881773	      0.19650344	     24.67584091	     18.25431620	      0.00000000	      3.88611794	     -3.46247143	      2.56498152	      8.66478099	      0.15122896	     12.87104333	    -10.12764372	      0.00000000	     -0.06861062	      0.12459898	      0.25410143	     -0.12741679	      0.16571664	      0.26998277	     -0.11272039	      0.30294995	      0.26998277	     -0.07841508	      0.30294995	      0.22233875	     -0.06371182	      0.25408223	      0.20645741	     -0.03920411	      0.19300381	      0.19057607	     -0.49007882	      1.40948854	      1.41323592	      0.00000000	      0.00000000	      9.13874908	     -2.58277127	      3.79719545	     -7.14337277	    -16.94133926	     21.44749065	     59.58501397	     80.75792619	     -1.82969274	      7.16651198	      1.05903036	    -19.95761300	     49.04577474	     30.64841866	     68.80319374	     -7.76213696	    -12.03960308
      2.00000000	      0.79148913	     -4.66385933	     82.55755759	      0.23874171	      0.75666528	      0.72111917	      5.65764202	      1.01016398	    -11.41487346	     11.06275637	      0.19308152	     24.62141845	     18.26340113	      0.00000000	      3.73449963	     -3.43230740	      4.22417460	      8.38358417	      0.14632115	     11.92771394	    -12.11810970	      0.00000000	     -0.07506938	      0.13649081	      0.19377802	     -0.13941135	      0.18153278	      0.20588914	     -0.12333149	      0.33186375	      0.20588914	     -0.08579680	      0.33186375	      0.16955576	     -0.06970943	      0.27833206	      0.15744464	     -0.04289464	      0.21142426	      0.14533351	     -0.53621308	      1.54401133	      1.07773519	      0.00000000	      0.00000000	      9.18730171	     -2.63069187	      4.12684301	     -7.19491803	    -17.22705537	     21.77908837	     59.71409134	     80.06371541	     -2.00215574	      6.89155679	      2.60215779	    -20.38760146	     58.05916241	     28.92990944	     56.58828614	     -7.02745774	    -13.00367535
      2.01694915	      0.72590323	     -4.79891658	     82.57725183	      0.23876210	      0.75617875	      0.72120025	      5.75678390	      0.99635576	    -11.12387396	     10.87036728	      0.18972370	     24.83270341	     18.36132356	      0.00000000	      3.79744177	     -3.39139583	      4.20029984	      8.22731714	      0.14359377	     11.64580771	    -12.11459813	      0.00000000	     -0.06514438	      0.12752098	      0.10873120	     -0.12097962	      0.16960290	      0.11552690	     -0.10702570	      0.31005450	      0.11552690	     -0.07445351	      0.31005450	      0.09513980	     -0.06049307	      0.26004077	      0.08834410	     -0.03722350	      0.19752999	      0.08154840	     -0.46531978	      1.44254278	      0.60473029	      0.00000000	      0.00000000	      9.63541040	     -2.54581705	      4.21939231	     -7.16525391	    -17.28678234	     22.00414979	     59.80191272	     80.06032039	     -1.95775425	      6.83454410	      2.00078648	    -20.28315093	     58.18093008	     27.79043332	     56.24520539	     -6.85717022	    -12.09135761
      2.03389831	      0.77959749	     -4.86294507	     82.81849295	      0.23847266	      0.75606524	      0.72133070	      5.68158017	      1.11121505	    -11.09983132	     10.48660376	      0.18302576	     24.70948382	     18.30076533	      0.00000000	      3.78004268	     -3.39970688	      5.30850464	      7.97156780	      0.13913010	     10.77557842	    -13.37652704	      0.00000000	     -0.06505180	      0.13907588	     -0.04822092	     -0.12080769	      0.18497093	     -0.05123473	     -0.10687360	      0.33814911	     -0.05123473	     -0.07434770	      0.33814911	     -0.04219330	     -0.06040710	      0.28360354	     -0.03917950	     -0.03717060	      0.21542855	     -0.03616569	     -0.46465847	      1.57325422	     -0.26819028	      0.00000000	      0.00000000	      9.76186688	     -2.41894137	      5.30278657	     -6.60948154	    -17.90351116	     23.62938984	     59.73792072	     79.06580725	     -2.35746813	      6.44838564	      1.59870323	    -20.18844826	     58.87638817	     26.47153627	     53.17019047	     -3.88541021	     -9.62775190
      2.05084746	      0.75028703	     -4.97864272	     82.90838028	      0.23850084	      0.75586574	      0.72141335	      5.69532794	      1.16700431	    -10.73468004	     10.13244040	      0.17684445	     24.68798929	     18.29206928	      0.00000000	      3.85218329	     -3.37677822	      5.60235306	      7.77902278	      0.13576956	     10.22476985	    -13.79670556	      0.00000000	     -0.06082264	      0.14042454	     -0.13544344	     -0.11295372	      0.18676463	     -0.14390866	     -0.09992551	      0.34142822	     -0.14390866	     -0.06951419	      0.34142822	     -0.11851301	     -0.05647990	      0.28635372	     -0.11004780	     -0.03475406	      0.21751761	     -0.10158258	     -0.43445002	      1.58851045	     -0.75329580	      0.00000000	      0.00000000	      9.97396178	     -2.31749855	      5.99935600	     -6.41098430	    -18.22606428	     24.27143508	     59.82678779	     78.91938979	     -2.22217246	      6.62429848	      1.20371428	    -20.26945209	     59.63378682	     25.61159906	     52.03304847	     -2.75138029	     -7.36212350
      2.06779661	      0.66150130	     -5.16603679	     83.00435321	      0.23870167	      0.75570471	      0.72134802	      5.75264872	      1.19134865	    -10.31348084	      9.72189679	      0.16967911	     24.70145501	     18.29576299	      0.00000000	      4.02014601	     -3.30815180	      5.74660963	      7.59674059	      0.13258814	      9.66911127	    -14.14877234	      0.00000000	     -0.04463538	      0.13465928	     -0.19421381	     -0.08289236	      0.17909685	     -0.20635217	     -0.07333147	      0.32741058	     -0.20635217	     -0.05101378	      0.32741058	     -0.16993708	     -0.04144841	      0.27459721	     -0.15779872	     -0.02550466	      0.20858723	     -0.14566036	     -0.31882606	      1.52329273	     -1.08015894	      0.00000000	      0.00000000	     10.07556510	     -2.39124628	      6.46283541	     -6.28658816	    -18.49082095	     24.77847283	     59.85224555	     78.80070210	     -1.96986240	      7.05834374	      0.86125062	    -20.43254348	     60.39811939	     24.87457417	     51.41924566	     -1.79436759	     -5.47915667
